<mxfile host="drawio-plugin" modified="2023-03-02T15:14:56.964Z" agent="5.0 (X11; Linux x86_64) AppleWebKit/537.36 (KHTML, like Gecko) Chrome/104.0.5112.102 Safari/537.36" etag="i0NoGapmAYm8-JodF1d8" version="20.5.3" type="embed"><diagram id="ddeH5hQUU-HBPDwZQ9L8" name="Page-1"><mxGraphModel dx="1263" dy="1347" grid="1" gridSize="10" guides="1" tooltips="1" connect="1" arrows="1" fold="1" page="1" pageScale="1" pageWidth="827" pageHeight="1169" math="0" shadow="0"><root><mxCell id="0"/><mxCell id="1" parent="0"/><mxCell id="5" value="Infrastructure" style="text;html=1;align=center;verticalAlign=middle;resizable=0;points=[];autosize=1;strokeColor=none;fillColor=none;fontSize=41;" parent="1" vertex="1"><mxGeometry x="446" y="-7" width="270" height="60" as="geometry"/></mxCell><mxCell id="8" value="" style="ellipse;shape=cloud;whiteSpace=wrap;html=1;fontSize=41;fillColor=#fff2cc;strokeColor=#d6b656;" parent="1" vertex="1"><mxGeometry x="-730" y="-190" width="250" height="150" as="geometry"/></mxCell><mxCell id="9" value="Internet" style="text;html=1;align=center;verticalAlign=middle;resizable=0;points=[];autosize=1;strokeColor=none;fillColor=none;fontSize=35;" parent="1" vertex="1"><mxGeometry x="-670" y="-140" width="140" height="60" as="geometry"/></mxCell><mxCell id="11" value="&lt;font color=&quot;#006633&quot; style=&quot;font-size: 17px;&quot;&gt;VPC&lt;/font&gt;" style="points=[[0,0],[0.25,0],[0.5,0],[0.75,0],[1,0],[1,0.25],[1,0.5],[1,0.75],[1,1],[0.75,1],[0.5,1],[0.25,1],[0,1],[0,0.75],[0,0.5],[0,0.25]];outlineConnect=0;gradientColor=none;html=1;whiteSpace=wrap;fontSize=12;fontStyle=0;container=1;pointerEvents=0;collapsible=0;recursiveResize=0;shape=mxgraph.aws4.group;grIcon=mxgraph.aws4.group_vpc;strokeColor=#248814;fillColor=none;verticalAlign=top;align=left;spacingLeft=30;fontColor=#AAB7B8;dashed=0;strokeWidth=3;" parent="1" vertex="1"><mxGeometry x="-230" y="73" width="1720" height="937" as="geometry"/></mxCell><mxCell id="22" value="&lt;font style=&quot;font-size: 17px;&quot;&gt;AWS Cloud&lt;/font&gt;" style="points=[[0,0],[0.25,0],[0.5,0],[0.75,0],[1,0],[1,0.25],[1,0.5],[1,0.75],[1,1],[0.75,1],[0.5,1],[0.25,1],[0,1],[0,0.75],[0,0.5],[0,0.25]];outlineConnect=0;gradientColor=none;html=1;whiteSpace=wrap;fontSize=12;fontStyle=0;container=1;pointerEvents=0;collapsible=0;recursiveResize=0;shape=mxgraph.aws4.group;grIcon=mxgraph.aws4.group_aws_cloud_alt;strokeColor=#232F3E;fillColor=none;verticalAlign=top;align=left;spacingLeft=30;fontColor=#232F3E;dashed=0;strokeWidth=3;" parent="1" vertex="1"><mxGeometry x="-249" y="46" width="1769" height="984" as="geometry"/></mxCell><mxCell id="23" value="Availability Zone (b)" style="fillColor=none;strokeColor=#147EBA;dashed=1;verticalAlign=top;fontStyle=0;fontColor=#147EBA;strokeWidth=2;fontSize=17;" parent="22" vertex="1"><mxGeometry x="830" y="28" width="560" height="922" as="geometry"/></mxCell><mxCell id="24" value="Availability Zone (a)" style="fillColor=none;strokeColor=#147EBA;dashed=1;verticalAlign=top;fontStyle=0;fontColor=#147EBA;strokeWidth=2;fontSize=17;" parent="22" vertex="1"><mxGeometry x="250" y="28" width="560" height="922" as="geometry"/></mxCell><mxCell id="21" value="10.0.0.0 /16" style="text;html=1;align=center;verticalAlign=middle;resizable=0;points=[];autosize=1;strokeColor=#009900;fillColor=none;fontSize=16;strokeWidth=3;" parent="22" vertex="1"><mxGeometry x="1629" y="27" width="110" height="30" as="geometry"/></mxCell><mxCell id="25" value="Public subnet" style="points=[[0,0],[0.25,0],[0.5,0],[0.75,0],[1,0],[1,0.25],[1,0.5],[1,0.75],[1,1],[0.75,1],[0.5,1],[0.25,1],[0,1],[0,0.75],[0,0.5],[0,0.25]];outlineConnect=0;gradientColor=none;html=1;whiteSpace=wrap;fontSize=12;fontStyle=0;container=1;pointerEvents=0;collapsible=0;recursiveResize=0;shape=mxgraph.aws4.group;grIcon=mxgraph.aws4.group_security_group;grStroke=0;strokeColor=#248814;fillColor=#E9F3E6;verticalAlign=top;align=left;spacingLeft=30;fontColor=#248814;dashed=0;strokeWidth=3;" parent="22" vertex="1"><mxGeometry x="260" y="80" width="530" height="320" as="geometry"/></mxCell><mxCell id="26" value="Public subnet" style="points=[[0,0],[0.25,0],[0.5,0],[0.75,0],[1,0],[1,0.25],[1,0.5],[1,0.75],[1,1],[0.75,1],[0.5,1],[0.25,1],[0,1],[0,0.75],[0,0.5],[0,0.25]];outlineConnect=0;gradientColor=none;html=1;whiteSpace=wrap;fontSize=12;fontStyle=0;container=1;pointerEvents=0;collapsible=0;recursiveResize=0;shape=mxgraph.aws4.group;grIcon=mxgraph.aws4.group_security_group;grStroke=0;strokeColor=#248814;fillColor=#E9F3E6;verticalAlign=top;align=left;spacingLeft=30;fontColor=#248814;dashed=0;strokeWidth=3;" parent="22" vertex="1"><mxGeometry x="850" y="74" width="532" height="326" as="geometry"/></mxCell><mxCell id="28" value="10.0.4.0/24" style="text;html=1;strokeColor=none;fillColor=none;align=center;verticalAlign=middle;whiteSpace=wrap;rounded=0;" parent="22" vertex="1"><mxGeometry x="1322" y="74" width="60" height="30" as="geometry"/></mxCell><mxCell id="29" value="Private subnet" style="points=[[0,0],[0.25,0],[0.5,0],[0.75,0],[1,0],[1,0.25],[1,0.5],[1,0.75],[1,1],[0.75,1],[0.5,1],[0.25,1],[0,1],[0,0.75],[0,0.5],[0,0.25]];outlineConnect=0;gradientColor=none;html=1;whiteSpace=wrap;fontSize=12;fontStyle=0;container=1;pointerEvents=0;collapsible=0;recursiveResize=0;shape=mxgraph.aws4.group;grIcon=mxgraph.aws4.group_security_group;grStroke=0;strokeColor=#147EBA;fillColor=#E6F2F8;verticalAlign=top;align=left;spacingLeft=30;fontColor=#147EBA;dashed=0;strokeWidth=3;" parent="22" vertex="1"><mxGeometry x="260" y="414" width="530" height="526" as="geometry"/></mxCell><mxCell id="30" value="10.0.1.0/24" style="text;html=1;strokeColor=none;fillColor=none;align=center;verticalAlign=middle;whiteSpace=wrap;rounded=0;" parent="22" vertex="1"><mxGeometry x="730" y="414" width="60" height="30" as="geometry"/></mxCell><mxCell id="31" value="Private subnet" style="points=[[0,0],[0.25,0],[0.5,0],[0.75,0],[1,0],[1,0.25],[1,0.5],[1,0.75],[1,1],[0.75,1],[0.5,1],[0.25,1],[0,1],[0,0.75],[0,0.5],[0,0.25]];outlineConnect=0;gradientColor=none;html=1;whiteSpace=wrap;fontSize=12;fontStyle=0;container=1;pointerEvents=0;collapsible=0;recursiveResize=0;shape=mxgraph.aws4.group;grIcon=mxgraph.aws4.group_security_group;grStroke=0;strokeColor=#147EBA;fillColor=#E6F2F8;verticalAlign=top;align=left;spacingLeft=30;fontColor=#147EBA;dashed=0;strokeWidth=3;" parent="22" vertex="1"><mxGeometry x="850" y="415" width="533" height="521" as="geometry"/></mxCell><mxCell id="32" value="10.0.2.0/24" style="text;html=1;strokeColor=none;fillColor=none;align=center;verticalAlign=middle;whiteSpace=wrap;rounded=0;" parent="31" vertex="1"><mxGeometry x="472" width="60" height="30" as="geometry"/></mxCell><mxCell id="43" value="" style="sketch=0;outlineConnect=0;fontColor=#232F3E;gradientColor=none;fillColor=#4D27AA;strokeColor=none;dashed=0;verticalLabelPosition=bottom;verticalAlign=top;align=center;html=1;fontSize=12;fontStyle=0;aspect=fixed;pointerEvents=1;shape=mxgraph.aws4.customer_gateway;labelBackgroundColor=none;labelBorderColor=none;strokeWidth=3;" parent="22" vertex="1"><mxGeometry x="1540" y="117" width="50" height="50" as="geometry"/></mxCell><mxCell id="46" value="&lt;font style=&quot;font-size: 9px;&quot; color=&quot;#5200a6&quot;&gt;Application Load Balancer For Jenkins&lt;br&gt;&lt;/font&gt;" style="sketch=0;outlineConnect=0;fontColor=#232F3E;gradientColor=none;fillColor=#4D27AA;strokeColor=none;dashed=0;verticalLabelPosition=bottom;verticalAlign=top;align=center;html=1;fontSize=12;fontStyle=0;aspect=fixed;pointerEvents=1;shape=mxgraph.aws4.application_load_balancer;labelBackgroundColor=none;labelBorderColor=none;strokeWidth=3;" parent="22" vertex="1"><mxGeometry x="654" y="154" width="86" height="86" as="geometry"/></mxCell><mxCell id="63" value="" style="rounded=0;whiteSpace=wrap;html=1;fontSize=15;fillColor=none;" parent="22" vertex="1"><mxGeometry x="30" y="394" width="200" height="124" as="geometry"/></mxCell><mxCell id="62" value="" style="sketch=0;points=[[0,0,0],[0.25,0,0],[0.5,0,0],[0.75,0,0],[1,0,0],[0,1,0],[0.25,1,0],[0.5,1,0],[0.75,1,0],[1,1,0],[0,0.25,0],[0,0.5,0],[0,0.75,0],[1,0.25,0],[1,0.5,0],[1,0.75,0]];outlineConnect=0;fontColor=#232F3E;gradientColor=#F78E04;gradientDirection=north;fillColor=#D05C17;strokeColor=#ffffff;dashed=0;verticalLabelPosition=bottom;verticalAlign=top;align=center;html=1;fontSize=12;fontStyle=0;aspect=fixed;shape=mxgraph.aws4.resourceIcon;resIcon=mxgraph.aws4.ecs;" parent="22" vertex="1"><mxGeometry x="32" y="395" width="26" height="26" as="geometry"/></mxCell><mxCell id="64" value="ECR" style="text;html=1;strokeColor=none;fillColor=none;align=center;verticalAlign=middle;whiteSpace=wrap;rounded=0;fontSize=15;fontStyle=1;fontColor=#CC6600;" parent="22" vertex="1"><mxGeometry x="59" y="394" width="39" height="30" as="geometry"/></mxCell><mxCell id="65" value="" style="rounded=1;whiteSpace=wrap;html=1;fontSize=15;fillColor=#b1ddf0;strokeColor=#10739e;" parent="22" vertex="1"><mxGeometry x="440" y="600" width="760" height="340" as="geometry"/></mxCell><mxCell id="66" value="" style="sketch=0;points=[[0,0,0],[0.25,0,0],[0.5,0,0],[0.75,0,0],[1,0,0],[0,1,0],[0.25,1,0],[0.5,1,0],[0.75,1,0],[1,1,0],[0,0.25,0],[0,0.5,0],[0,0.75,0],[1,0.25,0],[1,0.5,0],[1,0.75,0]];outlineConnect=0;fontColor=#232F3E;gradientColor=#F78E04;gradientDirection=north;fillColor=#D05C17;strokeColor=#ffffff;dashed=0;verticalLabelPosition=bottom;verticalAlign=top;align=center;html=1;fontSize=12;fontStyle=0;aspect=fixed;shape=mxgraph.aws4.resourceIcon;resIcon=mxgraph.aws4.eks_anywhere;" parent="22" vertex="1"><mxGeometry x="457" y="660" width="34" height="34" as="geometry"/></mxCell><mxCell id="67" value="EKS" style="text;html=1;strokeColor=none;fillColor=none;align=center;verticalAlign=middle;whiteSpace=wrap;rounded=0;fontSize=15;fontColor=#CC6600;" parent="22" vertex="1"><mxGeometry x="481" y="661" width="60" height="30" as="geometry"/></mxCell><mxCell id="68" value="" style="sketch=0;html=1;dashed=0;whitespace=wrap;fillColor=#2875E2;strokeColor=#ffffff;points=[[0.005,0.63,0],[0.1,0.2,0],[0.9,0.2,0],[0.5,0,0],[0.995,0.63,0],[0.72,0.99,0],[0.5,1,0],[0.28,0.99,0]];verticalLabelPosition=bottom;align=center;verticalAlign=top;shape=mxgraph.kubernetes.icon;prIcon=master;fontSize=15;fontColor=#CC6600;" parent="22" vertex="1"><mxGeometry x="1141.5" y="606" width="45" height="40" as="geometry"/></mxCell><mxCell id="70" value="&lt;span style=&quot;&quot;&gt;Control Plane (Master Node)&lt;/span&gt;" style="text;html=1;strokeColor=none;fillColor=none;align=center;verticalAlign=middle;whiteSpace=wrap;rounded=0;fontSize=10;fontColor=#660033;" parent="22" vertex="1"><mxGeometry x="1012.5" y="614" width="130" height="30" as="geometry"/></mxCell><mxCell id="71" value="EC2 Instancer" style="points=[[0,0],[0.25,0],[0.5,0],[0.75,0],[1,0],[1,0.25],[1,0.5],[1,0.75],[1,1],[0.75,1],[0.5,1],[0.25,1],[0,1],[0,0.75],[0,0.5],[0,0.25]];outlineConnect=0;gradientColor=none;html=1;whiteSpace=wrap;fontSize=12;fontStyle=0;container=1;pointerEvents=0;collapsible=0;recursiveResize=0;shape=mxgraph.aws4.group;grIcon=mxgraph.aws4.group_ec2_instance_contents;strokeColor=#D86613;fillColor=none;verticalAlign=top;align=left;spacingLeft=30;fontColor=#D86613;dashed=0;" parent="22" vertex="1"><mxGeometry x="469" y="721" width="264" height="209" as="geometry"/></mxCell><mxCell id="78" value="" style="rounded=0;whiteSpace=wrap;html=1;fontSize=10;fontColor=#2F4CC2;fillColor=none;" parent="71" vertex="1"><mxGeometry x="10" y="73" width="240" height="127" as="geometry"/></mxCell><mxCell id="79" value="" style="sketch=0;html=1;dashed=0;whitespace=wrap;fillColor=#2875E2;strokeColor=#ffffff;points=[[0.005,0.63,0],[0.1,0.2,0],[0.9,0.2,0],[0.5,0,0],[0.995,0.63,0],[0.72,0.99,0],[0.5,1,0],[0.28,0.99,0]];verticalLabelPosition=bottom;align=center;verticalAlign=top;shape=mxgraph.kubernetes.icon;prIcon=pod;fontSize=10;fontColor=#2F4CC2;" parent="71" vertex="1"><mxGeometry x="10" y="65" width="25" height="42" as="geometry"/></mxCell><mxCell id="80" value="Back-end Pod" style="text;html=1;strokeColor=none;fillColor=none;align=center;verticalAlign=middle;whiteSpace=wrap;rounded=0;fontSize=9;fontColor=#2F4CC2;" parent="71" vertex="1"><mxGeometry x="26" y="73" width="80" height="30" as="geometry"/></mxCell><mxCell id="135" value="Replica 1" style="text;html=1;strokeColor=none;fillColor=none;align=center;verticalAlign=middle;whiteSpace=wrap;rounded=0;fontSize=9;fontColor=#990000;" parent="71" vertex="1"><mxGeometry x="106" y="50" width="60" height="30" as="geometry"/></mxCell><mxCell id="158" value="" style="rounded=0;whiteSpace=wrap;html=1;fillColor=#fff2cc;strokeColor=#d6b656;" parent="71" vertex="1"><mxGeometry x="140.25" y="105" width="104" height="85.5" as="geometry"/></mxCell><mxCell id="159" value="&lt;font style=&quot;font-size: 9px;&quot;&gt;Back-end Container&lt;/font&gt;" style="text;html=1;strokeColor=none;fillColor=none;align=center;verticalAlign=middle;whiteSpace=wrap;rounded=0;labelBackgroundColor=none;labelBorderColor=none;strokeWidth=3;fontSize=9;fontColor=#000066;" parent="71" vertex="1"><mxGeometry x="143.25" y="125.5" width="104" height="30" as="geometry"/></mxCell><mxCell id="160" value="" style="sketch=0;outlineConnect=0;fontColor=#232F3E;gradientColor=none;fillColor=#D45B07;strokeColor=none;dashed=0;verticalLabelPosition=bottom;verticalAlign=top;align=center;html=1;fontSize=12;fontStyle=0;aspect=fixed;pointerEvents=1;shape=mxgraph.aws4.container_3;" parent="71" vertex="1"><mxGeometry x="172.25" y="107" width="43.35" height="28" as="geometry"/></mxCell><mxCell id="82" value="DEV" style="fillColor=none;strokeColor=#5A6C86;dashed=1;verticalAlign=top;fontStyle=0;fontColor=#5A6C86;fontSize=7;" parent="71" vertex="1"><mxGeometry x="150" y="161.5" width="34" height="24.5" as="geometry"/></mxCell><mxCell id="126" value="Prod" style="fillColor=none;strokeColor=#5A6C86;dashed=1;verticalAlign=top;fontStyle=0;fontColor=#5A6C86;fontSize=7;" parent="71" vertex="1"><mxGeometry x="200" y="161.5" width="40" height="24.5" as="geometry"/></mxCell><mxCell id="127" value="Namespaces" style="text;html=1;strokeColor=none;fillColor=none;align=center;verticalAlign=middle;whiteSpace=wrap;rounded=0;fontSize=9;fontColor=#994C00;" parent="71" vertex="1"><mxGeometry x="165.25" y="140" width="60" height="30" as="geometry"/></mxCell><mxCell id="188" value="" style="rounded=0;whiteSpace=wrap;html=1;fillColor=#fff2cc;strokeColor=#d6b656;" parent="71" vertex="1"><mxGeometry x="12.75" y="105" width="104" height="85.5" as="geometry"/></mxCell><mxCell id="189" value="&lt;font style=&quot;font-size: 9px;&quot;&gt;Back-end Container&lt;/font&gt;" style="text;html=1;strokeColor=none;fillColor=none;align=center;verticalAlign=middle;whiteSpace=wrap;rounded=0;labelBackgroundColor=none;labelBorderColor=none;strokeWidth=3;fontSize=9;fontColor=#000066;" parent="71" vertex="1"><mxGeometry x="15.75" y="125.5" width="104" height="30" as="geometry"/></mxCell><mxCell id="190" value="" style="sketch=0;outlineConnect=0;fontColor=#232F3E;gradientColor=none;fillColor=#D45B07;strokeColor=none;dashed=0;verticalLabelPosition=bottom;verticalAlign=top;align=center;html=1;fontSize=12;fontStyle=0;aspect=fixed;pointerEvents=1;shape=mxgraph.aws4.container_3;" parent="71" vertex="1"><mxGeometry x="44.75" y="107" width="43.35" height="28" as="geometry"/></mxCell><mxCell id="194" value="Namespaces" style="text;html=1;strokeColor=none;fillColor=none;align=center;verticalAlign=middle;whiteSpace=wrap;rounded=0;fontSize=9;fontColor=#994C00;" parent="71" vertex="1"><mxGeometry x="37.75" y="140" width="60" height="30" as="geometry"/></mxCell><mxCell id="185" value="Postges-dev" style="fillColor=none;strokeColor=#5A6C86;dashed=1;verticalAlign=top;fontStyle=0;fontColor=#5A6C86;fontSize=9;" parent="71" vertex="1"><mxGeometry x="38.75" y="160.5" width="59" height="27" as="geometry"/></mxCell><mxCell id="263" value="" style="sketch=0;html=1;dashed=0;whitespace=wrap;fillColor=#2875E2;strokeColor=#ffffff;points=[[0.005,0.63,0],[0.1,0.2,0],[0.9,0.2,0],[0.5,0,0],[0.995,0.63,0],[0.72,0.99,0],[0.5,1,0],[0.28,0.99,0]];verticalLabelPosition=bottom;align=center;verticalAlign=top;shape=mxgraph.kubernetes.icon;prIcon=pod;fontSize=8;" parent="71" vertex="1"><mxGeometry x="230" y="97.5" width="13" height="20.5" as="geometry"/></mxCell><mxCell id="264" value="Pod" style="text;html=1;strokeColor=none;fillColor=none;align=center;verticalAlign=middle;whiteSpace=wrap;rounded=0;fontSize=6;" parent="71" vertex="1"><mxGeometry x="227.25" y="116.5" width="20" height="10" as="geometry"/></mxCell><mxCell id="265" value="" style="sketch=0;html=1;dashed=0;whitespace=wrap;fillColor=#2875E2;strokeColor=#ffffff;points=[[0.005,0.63,0],[0.1,0.2,0],[0.9,0.2,0],[0.5,0,0],[0.995,0.63,0],[0.72,0.99,0],[0.5,1,0],[0.28,0.99,0]];verticalLabelPosition=bottom;align=center;verticalAlign=top;shape=mxgraph.kubernetes.icon;prIcon=pod;fontSize=8;" parent="71" vertex="1"><mxGeometry x="102.75" y="102" width="13" height="20.5" as="geometry"/></mxCell><mxCell id="266" value="Pod" style="text;html=1;strokeColor=none;fillColor=none;align=center;verticalAlign=middle;whiteSpace=wrap;rounded=0;fontSize=6;" parent="71" vertex="1"><mxGeometry x="99.75" y="116.5" width="20" height="10" as="geometry"/></mxCell><mxCell id="74" value="" style="sketch=0;html=1;dashed=0;whitespace=wrap;fillColor=#2875E2;strokeColor=#ffffff;points=[[0.005,0.63,0],[0.1,0.2,0],[0.9,0.2,0],[0.5,0,0],[0.995,0.63,0],[0.72,0.99,0],[0.5,1,0],[0.28,0.99,0]];verticalLabelPosition=bottom;align=center;verticalAlign=top;shape=mxgraph.kubernetes.icon;prIcon=node;fontSize=10;fontColor=#660033;" parent="22" vertex="1"><mxGeometry x="700" y="721" width="34" height="30" as="geometry"/></mxCell><mxCell id="75" value="&lt;font style=&quot;font-size: 10px;&quot;&gt;Worker Node&lt;/font&gt;" style="text;html=1;strokeColor=none;fillColor=none;align=center;verticalAlign=middle;whiteSpace=wrap;rounded=0;fontSize=10;fontColor=#2F4CC2;" parent="22" vertex="1"><mxGeometry x="632" y="720" width="80" height="30" as="geometry"/></mxCell><mxCell id="76" value="" style="sketch=0;html=1;dashed=0;whitespace=wrap;fillColor=#2875E2;strokeColor=#ffffff;points=[[0.005,0.63,0],[0.1,0.2,0],[0.9,0.2,0],[0.5,0,0],[0.995,0.63,0],[0.72,0.99,0],[0.5,1,0],[0.28,0.99,0]];verticalLabelPosition=bottom;align=center;verticalAlign=top;shape=mxgraph.kubernetes.icon;prIcon=node;fontSize=10;fontColor=#660033;" parent="22" vertex="1"><mxGeometry x="1146" y="721" width="34" height="30" as="geometry"/></mxCell><mxCell id="77" value="&lt;font style=&quot;font-size: 10px;&quot;&gt;Worker Node&lt;/font&gt;" style="text;html=1;strokeColor=none;fillColor=none;align=center;verticalAlign=middle;whiteSpace=wrap;rounded=0;fontSize=10;fontColor=#2F4CC2;" parent="22" vertex="1"><mxGeometry x="1078" y="718" width="80" height="30" as="geometry"/></mxCell><mxCell id="141" style="edgeStyle=orthogonalEdgeStyle;rounded=0;orthogonalLoop=1;jettySize=auto;html=1;exitX=1;exitY=0.5;exitDx=0;exitDy=0;fontSize=11;" parent="22" source="34" target="45" edge="1"><mxGeometry relative="1" as="geometry"/></mxCell><mxCell id="151" value="" style="endArrow=classic;html=1;rounded=0;fontSize=11;fontColor=#4C0099;" parent="22" source="153" target="139" edge="1"><mxGeometry relative="1" as="geometry"><mxPoint x="339" y="534" as="sourcePoint"/><mxPoint x="439" y="534" as="targetPoint"/></mxGeometry></mxCell><mxCell id="152" value="" style="shape=message;html=1;outlineConnect=0;fontSize=11;fontColor=#4C0099;fillColor=none;" parent="151" vertex="1"><mxGeometry width="20" height="14" relative="1" as="geometry"><mxPoint x="-10" y="-7" as="offset"/></mxGeometry></mxCell><mxCell id="153" value="" style="sketch=0;outlineConnect=0;fontColor=#232F3E;gradientColor=none;fillColor=#D45B07;strokeColor=none;dashed=0;verticalLabelPosition=bottom;verticalAlign=top;align=center;html=1;fontSize=12;fontStyle=0;aspect=fixed;pointerEvents=1;shape=mxgraph.aws4.ecs_task;" parent="22" vertex="1"><mxGeometry x="182" y="395" width="31.6" height="41" as="geometry"/></mxCell><mxCell id="154" value="Jenkins Image" style="text;html=1;strokeColor=none;fillColor=none;align=center;verticalAlign=middle;whiteSpace=wrap;rounded=0;fontSize=8;fontColor=#4C0099;" parent="22" vertex="1"><mxGeometry x="170" y="428" width="60" height="30" as="geometry"/></mxCell><mxCell id="155" value="" style="sketch=0;outlineConnect=0;fontColor=#232F3E;gradientColor=none;fillColor=#D45B07;strokeColor=none;dashed=0;verticalLabelPosition=bottom;verticalAlign=top;align=center;html=1;fontSize=12;fontStyle=0;aspect=fixed;pointerEvents=1;shape=mxgraph.aws4.ecs_task;" parent="22" vertex="1"><mxGeometry x="182" y="455" width="31.6" height="41" as="geometry"/></mxCell><mxCell id="156" value="Back-end image" style="text;html=1;strokeColor=none;fillColor=none;align=center;verticalAlign=middle;whiteSpace=wrap;rounded=0;fontSize=8;fontColor=#4C0099;" parent="22" vertex="1"><mxGeometry x="170" y="488" width="60" height="30" as="geometry"/></mxCell><mxCell id="164" value="" style="endArrow=classic;html=1;rounded=0;fontSize=8;fontColor=#4C0099;" parent="22" source="155" target="160" edge="1"><mxGeometry relative="1" as="geometry"><mxPoint x="289" y="734" as="sourcePoint"/><mxPoint x="389" y="734" as="targetPoint"/></mxGeometry></mxCell><mxCell id="165" value="" style="shape=message;html=1;outlineConnect=0;fontSize=8;fontColor=#4C0099;fillColor=none;" parent="164" vertex="1"><mxGeometry width="20" height="14" relative="1" as="geometry"><mxPoint x="-10" y="-7" as="offset"/></mxGeometry></mxCell><mxCell id="177" value="Private Route Table" style="swimlane;fontStyle=0;childLayout=stackLayout;horizontal=1;startSize=30;horizontalStack=0;resizeParent=1;resizeParentMax=0;resizeLast=0;collapsible=1;marginBottom=0;whiteSpace=wrap;html=1;fontSize=18;fontColor=#4C0099;fillColor=none;" parent="22" vertex="1"><mxGeometry x="1429" y="167" width="270" height="90" as="geometry"><mxRectangle x="1399" y="164" width="70" height="40" as="alternateBounds"/></mxGeometry></mxCell><mxCell id="178" value="&lt;b style=&quot;&quot;&gt;&lt;font color=&quot;#000066&quot;&gt;10.0.1.0/24&amp;nbsp; &amp;nbsp; -&amp;gt;&amp;nbsp; &amp;nbsp;NAT Gateway&lt;/font&gt;&lt;/b&gt;" style="text;strokeColor=none;fillColor=none;align=left;verticalAlign=middle;spacingLeft=4;spacingRight=4;overflow=hidden;points=[[0,0.5],[1,0.5]];portConstraint=eastwest;rotatable=0;whiteSpace=wrap;html=1;fontSize=16;fontColor=#4C0099;" parent="177" vertex="1"><mxGeometry y="30" width="270" height="30" as="geometry"/></mxCell><mxCell id="179" value="&lt;font color=&quot;#000066&quot;&gt;&lt;b&gt;10.0.2.0/24&amp;nbsp; &amp;nbsp; -&amp;gt;&amp;nbsp; &amp;nbsp;NAT Gateway&lt;/b&gt;&lt;/font&gt;" style="text;strokeColor=none;fillColor=none;align=left;verticalAlign=middle;spacingLeft=4;spacingRight=4;overflow=hidden;points=[[0,0.5],[1,0.5]];portConstraint=eastwest;rotatable=0;whiteSpace=wrap;html=1;fontSize=16;fontColor=#4C0099;" parent="177" vertex="1"><mxGeometry y="60" width="270" height="30" as="geometry"/></mxCell><mxCell id="180" value="" style="sketch=0;outlineConnect=0;fontColor=#232F3E;gradientColor=none;fillColor=#4D27AA;strokeColor=none;dashed=0;verticalLabelPosition=bottom;verticalAlign=top;align=center;html=1;fontSize=12;fontStyle=0;aspect=fixed;pointerEvents=1;shape=mxgraph.aws4.customer_gateway;labelBackgroundColor=none;labelBorderColor=none;strokeWidth=3;" parent="22" vertex="1"><mxGeometry x="1540" y="267" width="50" height="50" as="geometry"/></mxCell><mxCell id="181" value="Public Route Table" style="swimlane;fontStyle=0;childLayout=stackLayout;horizontal=1;startSize=30;horizontalStack=0;resizeParent=1;resizeParentMax=0;resizeLast=0;collapsible=1;marginBottom=0;whiteSpace=wrap;html=1;fontSize=18;fontColor=#4C0099;fillColor=none;" parent="22" vertex="1"><mxGeometry x="1430" y="317" width="270" height="90" as="geometry"><mxRectangle x="1399" y="164" width="70" height="40" as="alternateBounds"/></mxGeometry></mxCell><mxCell id="182" value="&lt;font color=&quot;#000066&quot;&gt;&lt;b&gt;10.0.3.0/24&amp;nbsp; &amp;nbsp; -&amp;gt;&amp;nbsp; &amp;nbsp;Internet Gateway&lt;/b&gt;&lt;/font&gt;" style="text;strokeColor=none;fillColor=none;align=left;verticalAlign=middle;spacingLeft=4;spacingRight=4;overflow=hidden;points=[[0,0.5],[1,0.5]];portConstraint=eastwest;rotatable=0;whiteSpace=wrap;html=1;fontSize=16;fontColor=#4C0099;" parent="181" vertex="1"><mxGeometry y="30" width="270" height="30" as="geometry"/></mxCell><mxCell id="183" value="&lt;font color=&quot;#000066&quot;&gt;&lt;b&gt;10.0.4.0/24&amp;nbsp; &amp;nbsp; -&amp;gt;&amp;nbsp; &amp;nbsp;Internet Gateway&lt;/b&gt;&lt;/font&gt;" style="text;strokeColor=none;fillColor=none;align=left;verticalAlign=middle;spacingLeft=4;spacingRight=4;overflow=hidden;points=[[0,0.5],[1,0.5]];portConstraint=eastwest;rotatable=0;whiteSpace=wrap;html=1;fontSize=16;fontColor=#4C0099;" parent="181" vertex="1"><mxGeometry y="60" width="270" height="30" as="geometry"/></mxCell><mxCell id="27" value="10.0.3.0/24" style="text;html=1;strokeColor=none;fillColor=none;align=center;verticalAlign=middle;whiteSpace=wrap;rounded=0;" parent="22" vertex="1"><mxGeometry x="730" y="80" width="60" height="30" as="geometry"/></mxCell><mxCell id="45" value="&lt;font color=&quot;#4c0099&quot;&gt;Nat Gateway&lt;/font&gt;" style="sketch=0;outlineConnect=0;fontColor=#232F3E;gradientColor=none;fillColor=#4D27AA;strokeColor=none;dashed=0;verticalLabelPosition=bottom;verticalAlign=top;align=center;html=1;fontSize=12;fontStyle=0;aspect=fixed;pointerEvents=1;shape=mxgraph.aws4.nat_gateway;labelBackgroundColor=none;labelBorderColor=none;strokeWidth=3;" parent="22" vertex="1"><mxGeometry x="1107" y="257" width="78" height="78" as="geometry"/></mxCell><mxCell id="184" value="&lt;font color=&quot;#4c0099&quot;&gt;Nat Gateway&lt;/font&gt;" style="sketch=0;outlineConnect=0;fontColor=#232F3E;gradientColor=none;fillColor=#4D27AA;strokeColor=none;dashed=0;verticalLabelPosition=bottom;verticalAlign=top;align=center;html=1;fontSize=12;fontStyle=0;aspect=fixed;pointerEvents=1;shape=mxgraph.aws4.nat_gateway;labelBackgroundColor=none;labelBorderColor=none;strokeWidth=3;" parent="22" vertex="1"><mxGeometry x="413" y="267" width="78" height="78" as="geometry"/></mxCell><mxCell id="209" value="EC2 Instancer" style="points=[[0,0],[0.25,0],[0.5,0],[0.75,0],[1,0],[1,0.25],[1,0.5],[1,0.75],[1,1],[0.75,1],[0.5,1],[0.25,1],[0,1],[0,0.75],[0,0.5],[0,0.25]];outlineConnect=0;gradientColor=none;html=1;whiteSpace=wrap;fontSize=12;fontStyle=0;container=1;pointerEvents=0;collapsible=0;recursiveResize=0;shape=mxgraph.aws4.group;grIcon=mxgraph.aws4.group_ec2_instance_contents;strokeColor=#D86613;fillColor=none;verticalAlign=top;align=left;spacingLeft=30;fontColor=#D86613;dashed=0;" parent="22" vertex="1"><mxGeometry x="918" y="722" width="264" height="209" as="geometry"/></mxCell><mxCell id="245" value="" style="rounded=0;whiteSpace=wrap;html=1;fontSize=10;fontColor=#2F4CC2;fillColor=none;" parent="209" vertex="1"><mxGeometry x="12" y="72" width="240" height="127" as="geometry"/></mxCell><mxCell id="246" value="" style="rounded=0;whiteSpace=wrap;html=1;fillColor=#fff2cc;strokeColor=#d6b656;" parent="209" vertex="1"><mxGeometry x="21" y="104" width="104" height="85.5" as="geometry"/></mxCell><mxCell id="247" value="&lt;font style=&quot;font-size: 9px;&quot;&gt;Back-end Container&lt;/font&gt;" style="text;html=1;strokeColor=none;fillColor=none;align=center;verticalAlign=middle;whiteSpace=wrap;rounded=0;labelBackgroundColor=none;labelBorderColor=none;strokeWidth=3;fontSize=9;fontColor=#000066;" parent="209" vertex="1"><mxGeometry x="24" y="124.5" width="104" height="30" as="geometry"/></mxCell><mxCell id="248" value="" style="sketch=0;outlineConnect=0;fontColor=#232F3E;gradientColor=none;fillColor=#D45B07;strokeColor=none;dashed=0;verticalLabelPosition=bottom;verticalAlign=top;align=center;html=1;fontSize=12;fontStyle=0;aspect=fixed;pointerEvents=1;shape=mxgraph.aws4.container_3;" parent="209" vertex="1"><mxGeometry x="53" y="106" width="43.35" height="28" as="geometry"/></mxCell><mxCell id="249" value="DEV" style="fillColor=none;strokeColor=#5A6C86;dashed=1;verticalAlign=top;fontStyle=0;fontColor=#5A6C86;fontSize=7;" parent="209" vertex="1"><mxGeometry x="28" y="160.5" width="34" height="24.5" as="geometry"/></mxCell><mxCell id="250" value="Prod" style="fillColor=none;strokeColor=#5A6C86;dashed=1;verticalAlign=top;fontStyle=0;fontColor=#5A6C86;fontSize=7;" parent="209" vertex="1"><mxGeometry x="80" y="160.5" width="40" height="24.5" as="geometry"/></mxCell><mxCell id="252" value="Namespaces" style="text;html=1;strokeColor=none;fillColor=none;align=center;verticalAlign=middle;whiteSpace=wrap;rounded=0;fontSize=9;fontColor=#994C00;" parent="209" vertex="1"><mxGeometry x="46" y="139" width="60" height="30" as="geometry"/></mxCell><mxCell id="258" value="Replica 2" style="text;html=1;strokeColor=none;fillColor=none;align=center;verticalAlign=middle;whiteSpace=wrap;rounded=0;fontSize=9;fontColor=#990000;" parent="209" vertex="1"><mxGeometry x="107" y="48" width="60" height="30" as="geometry"/></mxCell><mxCell id="260" value="" style="sketch=0;html=1;dashed=0;whitespace=wrap;fillColor=#2875E2;strokeColor=#ffffff;points=[[0.005,0.63,0],[0.1,0.2,0],[0.9,0.2,0],[0.5,0,0],[0.995,0.63,0],[0.72,0.99,0],[0.5,1,0],[0.28,0.99,0]];verticalLabelPosition=bottom;align=center;verticalAlign=top;shape=mxgraph.kubernetes.icon;prIcon=pod;fontSize=10;fontColor=#2F4CC2;" parent="209" vertex="1"><mxGeometry x="12" y="66" width="25" height="42" as="geometry"/></mxCell><mxCell id="261" value="Back-end Pod" style="text;html=1;strokeColor=none;fillColor=none;align=center;verticalAlign=middle;whiteSpace=wrap;rounded=0;fontSize=9;fontColor=#2F4CC2;" parent="209" vertex="1"><mxGeometry x="28" y="72" width="80" height="30" as="geometry"/></mxCell><mxCell id="267" value="" style="sketch=0;html=1;dashed=0;whitespace=wrap;fillColor=#2875E2;strokeColor=#ffffff;points=[[0.005,0.63,0],[0.1,0.2,0],[0.9,0.2,0],[0.5,0,0],[0.995,0.63,0],[0.72,0.99,0],[0.5,1,0],[0.28,0.99,0]];verticalLabelPosition=bottom;align=center;verticalAlign=top;shape=mxgraph.kubernetes.icon;prIcon=pod;fontSize=8;" parent="209" vertex="1"><mxGeometry x="110" y="101" width="13" height="20.5" as="geometry"/></mxCell><mxCell id="268" value="Pod" style="text;html=1;strokeColor=none;fillColor=none;align=center;verticalAlign=middle;whiteSpace=wrap;rounded=0;fontSize=6;" parent="209" vertex="1"><mxGeometry x="107" y="116.5" width="20" height="9" as="geometry"/></mxCell><mxCell id="166" value="" style="endArrow=classic;html=1;rounded=0;fontSize=8;fontColor=#4C0099;" parent="22" source="155" target="248" edge="1"><mxGeometry relative="1" as="geometry"><mxPoint x="289" y="484" as="sourcePoint"/><mxPoint x="1090" y="829.8904800984815" as="targetPoint"/></mxGeometry></mxCell><mxCell id="167" value="" style="shape=message;html=1;outlineConnect=0;fontSize=8;fontColor=#4C0099;fillColor=none;" parent="166" vertex="1"><mxGeometry width="20" height="14" relative="1" as="geometry"><mxPoint x="-10" y="-7" as="offset"/></mxGeometry></mxCell><mxCell id="262" value="&lt;font style=&quot;font-size: 9px;&quot; color=&quot;#5200a6&quot;&gt;Application Load Balancer For EKS&lt;br&gt;&lt;/font&gt;" style="sketch=0;outlineConnect=0;fontColor=#232F3E;gradientColor=none;fillColor=#4D27AA;strokeColor=none;dashed=0;verticalLabelPosition=bottom;verticalAlign=top;align=center;html=1;fontSize=12;fontStyle=0;aspect=fixed;pointerEvents=1;shape=mxgraph.aws4.application_load_balancer;labelBackgroundColor=none;labelBorderColor=none;strokeWidth=3;" parent="22" vertex="1"><mxGeometry x="939" y="154" width="86" height="86" as="geometry"/></mxCell><mxCell id="278" style="edgeStyle=orthogonalEdgeStyle;rounded=0;orthogonalLoop=1;jettySize=auto;html=1;fontSize=13;" parent="22" source="269" target="262" edge="1"><mxGeometry relative="1" as="geometry"/></mxCell><mxCell id="269" value="" style="sketch=0;html=1;dashed=0;whitespace=wrap;fillColor=#2875E2;strokeColor=#ffffff;points=[[0.005,0.63,0],[0.1,0.2,0],[0.9,0.2,0],[0.5,0,0],[0.995,0.63,0],[0.72,0.99,0],[0.5,1,0],[0.28,0.99,0]];verticalLabelPosition=bottom;align=center;verticalAlign=top;shape=mxgraph.kubernetes.icon;prIcon=ing;fontSize=7;" parent="22" vertex="1"><mxGeometry x="795" y="606" width="50" height="48" as="geometry"/></mxCell><mxCell id="270" value="Ingres" style="text;html=1;strokeColor=none;fillColor=none;align=center;verticalAlign=middle;whiteSpace=wrap;rounded=0;fontSize=13;" parent="22" vertex="1"><mxGeometry x="791" y="648" width="60" height="30" as="geometry"/></mxCell><mxCell id="272" style="edgeStyle=orthogonalEdgeStyle;rounded=0;orthogonalLoop=1;jettySize=auto;html=1;entryX=0.5;entryY=1;entryDx=0;entryDy=0;fontSize=13;" parent="22" source="246" target="270" edge="1"><mxGeometry relative="1" as="geometry"/></mxCell><mxCell id="277" style="edgeStyle=orthogonalEdgeStyle;rounded=0;orthogonalLoop=1;jettySize=auto;html=1;fontSize=13;" parent="22" source="158" target="270" edge="1"><mxGeometry relative="1" as="geometry"><mxPoint x="819.0000000000002" y="726.5" as="targetPoint"/></mxGeometry></mxCell><mxCell id="34" value="" style="rounded=1;whiteSpace=wrap;html=1;strokeColor=#000000;strokeWidth=2;fillColor=none;" parent="22" vertex="1"><mxGeometry x="620" y="446" width="361" height="151" as="geometry"/></mxCell><mxCell id="280" style="edgeStyle=orthogonalEdgeStyle;rounded=0;orthogonalLoop=1;jettySize=auto;html=1;exitX=0;exitY=0.5;exitDx=0;exitDy=0;" parent="22" source="139" target="46" edge="1"><mxGeometry relative="1" as="geometry"/></mxCell><mxCell id="139" value="" style="rounded=0;whiteSpace=wrap;html=1;fillColor=#fff2cc;strokeColor=#d6b656;" parent="22" vertex="1"><mxGeometry x="749" y="495.5" width="124" height="85.5" as="geometry"/></mxCell><mxCell id="40" value="&lt;font style=&quot;font-size: 11px;&quot;&gt;Jenkins Container&lt;/font&gt;" style="text;html=1;strokeColor=none;fillColor=none;align=center;verticalAlign=middle;whiteSpace=wrap;rounded=0;labelBackgroundColor=none;labelBorderColor=none;strokeWidth=3;fontSize=14;fontColor=#000066;" parent="22" vertex="1"><mxGeometry x="765" y="516" width="92" height="30" as="geometry"/></mxCell><mxCell id="138" value="" style="sketch=0;outlineConnect=0;fontColor=#232F3E;gradientColor=none;fillColor=#D45B07;strokeColor=none;dashed=0;verticalLabelPosition=bottom;verticalAlign=top;align=center;html=1;fontSize=12;fontStyle=0;aspect=fixed;pointerEvents=1;shape=mxgraph.aws4.container_3;" parent="22" vertex="1"><mxGeometry x="787" y="546" width="48" height="31" as="geometry"/></mxCell><mxCell id="39" value="&lt;font style=&quot;font-size: 14px;&quot;&gt;ECS&lt;/font&gt;" style="text;html=1;strokeColor=none;fillColor=none;align=center;verticalAlign=middle;whiteSpace=wrap;rounded=0;strokeWidth=3;fontSize=14;fontColor=#CC6600;labelBackgroundColor=none;spacing=2;spacingTop=0;labelBorderColor=none;fontStyle=1" parent="22" vertex="1"><mxGeometry x="647.5" y="454" width="60" height="30" as="geometry"/></mxCell><mxCell id="37" value="" style="sketch=0;outlineConnect=0;fontColor=#232F3E;gradientColor=none;fillColor=#D45B07;strokeColor=none;dashed=0;verticalLabelPosition=bottom;verticalAlign=top;align=center;html=1;fontSize=12;fontStyle=0;aspect=fixed;pointerEvents=1;shape=mxgraph.aws4.ecs_anywhere;strokeWidth=3;" parent="22" vertex="1"><mxGeometry x="632" y="455" width="27.5" height="30" as="geometry"/></mxCell><mxCell id="41" value="&lt;font style=&quot;font-size: 10px;&quot;&gt;Fargate&lt;/font&gt;" style="text;html=1;strokeColor=none;fillColor=none;align=center;verticalAlign=middle;whiteSpace=wrap;rounded=0;labelBackgroundColor=none;labelBorderColor=none;strokeWidth=3;fontSize=14;fontColor=#000066;" parent="22" vertex="1"><mxGeometry x="868" y="570" width="60" height="30" as="geometry"/></mxCell><mxCell id="35" value="" style="sketch=0;points=[[0,0,0],[0.25,0,0],[0.5,0,0],[0.75,0,0],[1,0,0],[0,1,0],[0.25,1,0],[0.5,1,0],[0.75,1,0],[1,1,0],[0,0.25,0],[0,0.5,0],[0,0.75,0],[1,0.25,0],[1,0.5,0],[1,0.75,0]];outlineConnect=0;fontColor=#232F3E;gradientColor=#F78E04;gradientDirection=north;fillColor=#D05C17;strokeColor=#ffffff;dashed=0;verticalLabelPosition=bottom;verticalAlign=top;align=center;html=1;fontSize=12;fontStyle=0;aspect=fixed;shape=mxgraph.aws4.resourceIcon;resIcon=mxgraph.aws4.fargate;strokeWidth=3;" parent="22" vertex="1"><mxGeometry x="882" y="550" width="29" height="29" as="geometry"/></mxCell><mxCell id="52" style="edgeStyle=orthogonalEdgeStyle;rounded=0;orthogonalLoop=1;jettySize=auto;html=1;entryX=0.55;entryY=0.95;entryDx=0;entryDy=0;entryPerimeter=0;" parent="1" source="46" target="8" edge="1"><mxGeometry relative="1" as="geometry"/></mxCell><mxCell id="54" style="edgeStyle=orthogonalEdgeStyle;rounded=0;orthogonalLoop=1;jettySize=auto;html=1;entryX=0.875;entryY=0.5;entryDx=0;entryDy=0;entryPerimeter=0;strokeWidth=1;fontSize=15;" parent="1" source="44" target="8" edge="1"><mxGeometry relative="1" as="geometry"/></mxCell><mxCell id="44" value="&lt;font style=&quot;font-size: 15px;&quot;&gt;Internet Gateway&lt;/font&gt;" style="sketch=0;outlineConnect=0;fontColor=#232F3E;gradientColor=none;fillColor=#4D27AA;strokeColor=none;dashed=0;verticalLabelPosition=bottom;verticalAlign=top;align=center;html=1;fontSize=12;fontStyle=0;aspect=fixed;pointerEvents=1;shape=mxgraph.aws4.internet_gateway;labelBackgroundColor=none;labelBorderColor=none;strokeWidth=3;" parent="1" vertex="1"><mxGeometry x="858" y="-154" width="78" height="78" as="geometry"/></mxCell><mxCell id="53" style="edgeStyle=orthogonalEdgeStyle;rounded=0;orthogonalLoop=1;jettySize=auto;html=1;fontSize=15;strokeWidth=1;" parent="1" source="45" target="44" edge="1"><mxGeometry relative="1" as="geometry"><mxPoint x="1019" y="140" as="sourcePoint"/></mxGeometry></mxCell><mxCell id="169" value="" style="shape=cylinder3;whiteSpace=wrap;html=1;boundedLbl=1;backgroundOutline=1;size=15;fontSize=22;fontColor=#4C0099;fillColor=none;" parent="1" vertex="1"><mxGeometry x="-680" y="520" width="190" height="310" as="geometry"/></mxCell><mxCell id="172" value="Infrastructure Pipeline" style="sketch=0;points=[[0,0,0],[0.25,0,0],[0.5,0,0],[0.75,0,0],[1,0,0],[0,1,0],[0.25,1,0],[0.5,1,0],[0.75,1,0],[1,1,0],[0,0.25,0],[0,0.5,0],[0,0.75,0],[1,0.25,0],[1,0.5,0],[1,0.75,0]];outlineConnect=0;fontColor=#232F3E;gradientColor=#4D72F3;gradientDirection=north;fillColor=#3334B9;strokeColor=#ffffff;dashed=0;verticalLabelPosition=bottom;verticalAlign=top;align=center;html=1;fontSize=12;fontStyle=0;aspect=fixed;shape=mxgraph.aws4.resourceIcon;resIcon=mxgraph.aws4.codepipeline;" parent="1" vertex="1"><mxGeometry x="-624" y="571" width="78" height="78" as="geometry"/></mxCell><mxCell id="173" value="" style="endArrow=classic;html=1;rounded=0;fontSize=22;fontColor=#4C0099;exitX=1;exitY=0.5;exitDx=0;exitDy=0;exitPerimeter=0;" parent="1" source="172" target="153" edge="1"><mxGeometry relative="1" as="geometry"><mxPoint x="-540" y="550" as="sourcePoint"/><mxPoint x="-440" y="550" as="targetPoint"/></mxGeometry></mxCell><mxCell id="174" value="" style="shape=message;html=1;outlineConnect=0;fontSize=22;fontColor=#4C0099;fillColor=none;" parent="173" vertex="1"><mxGeometry width="20" height="14" relative="1" as="geometry"><mxPoint x="-10" y="-7" as="offset"/></mxGeometry></mxCell><mxCell id="175" value="Github" style="text;html=1;strokeColor=none;fillColor=none;align=center;verticalAlign=middle;whiteSpace=wrap;rounded=0;fontSize=22;fontColor=#4C0099;" parent="1" vertex="1"><mxGeometry x="-615" y="520" width="60" height="30" as="geometry"/></mxCell></root></mxGraphModel></diagram></mxfile>